<svg width="100" height="100" viewBox="0 0 100 100" fill="none" xmlns="http://www.w3.org/2000/svg">
<path d="M18.1666 64.7586V12.5084C18.1666 11.1691 19.2523 10.0834 20.5916 10.0834H80.4083C81.7477 10.0834 82.8333 11.1691 82.8333 12.5084V64.7586C82.8333 70.8822 79.3736 76.4799 73.8968 79.2185L51.5843 90.3743C50.9017 90.7158 50.0982 90.7158 49.4156 90.3743L27.1034 79.2185C21.6263 76.4799 18.1666 70.8822 18.1666 64.7586Z" fill="#F6EFEF"/>
<path d="M18.1666 64.7586V12.5084C18.1666 11.1691 19.2523 10.0834 20.5916 10.0834H80.4083C81.7477 10.0834 82.8333 11.1691 82.8333 12.5084V64.7586C82.8333 70.8822 79.3736 76.4799 73.8968 79.2185L51.5843 90.3743C50.9017 90.7158 50.0982 90.7158 49.4156 90.3743L27.1034 79.2185C21.6263 76.4799 18.1666 70.8822 18.1666 64.7586Z" stroke="black" stroke-width="3.5" stroke-linecap="round" stroke-linejoin="round"/>
<path d="M18.1666 64.7586V12.5084C18.1666 11.1691 19.2523 10.0834 20.5916 10.0834H80.4083C81.7477 10.0834 82.8333 11.1691 82.8333 12.5084V64.7586C82.8333 70.8822 79.3736 76.4799 73.8968 79.2185L51.5843 90.3743C50.9017 90.7158 50.0982 90.7158 49.4156 90.3743L27.1034 79.2185C21.6263 76.4799 18.1666 70.8822 18.1666 64.7586Z" stroke="black" stroke-opacity="0.2" stroke-width="3.5" stroke-linecap="round" stroke-linejoin="round"/>
<path d="M46.4681 35.5617C46.4681 32.1446 43.698 29.3744 40.2809 29.3744C36.8637 29.3744 34.0936 32.1446 34.0936 35.5617C34.0936 38.9788 36.8637 41.7489 40.2809 41.7489C43.698 41.7489 46.4681 38.9788 46.4681 35.5617ZM46.4681 35.5617H65.0298V30.9212" stroke="black" stroke-width="2.5" stroke-linecap="round" stroke-linejoin="round"/>
<path d="M58.8425 35.5616V30.9212" stroke="black" stroke-width="2.5" stroke-linecap="round" stroke-linejoin="round"/>
<path d="M40.912 54.758C40.912 55.3153 40.802 55.8507 40.582 56.364C40.362 56.8773 40.076 57.376 39.724 57.86C39.372 58.3293 38.976 58.784 38.536 59.224C38.096 59.664 37.6633 60.082 37.238 60.478C37.018 60.6833 36.776 60.918 36.512 61.182C36.2627 61.4313 36.0207 61.688 35.786 61.952C35.5513 62.216 35.3387 62.4653 35.148 62.7C34.972 62.92 34.862 63.1033 34.818 63.25H41.374V66H31.21C31.1807 65.8387 31.166 65.6333 31.166 65.384C31.166 65.1347 31.166 64.9587 31.166 64.856C31.166 64.152 31.276 63.5067 31.496 62.92C31.7307 62.3333 32.0313 61.7907 32.398 61.292C32.7647 60.7787 33.1753 60.302 33.63 59.862C34.0993 59.422 34.5613 58.982 35.016 58.542C35.368 58.2047 35.698 57.8893 36.006 57.596C36.314 57.288 36.5853 56.9947 36.82 56.716C37.0547 56.4227 37.238 56.1367 37.37 55.858C37.502 55.5647 37.568 55.2713 37.568 54.978C37.568 54.3327 37.3847 53.878 37.018 53.614C36.6513 53.35 36.1967 53.218 35.654 53.218C35.258 53.218 34.884 53.284 34.532 53.416C34.1947 53.5333 33.8793 53.68 33.586 53.856C33.3073 54.0173 33.0653 54.186 32.86 54.362C32.6547 54.5233 32.5007 54.6553 32.398 54.758L30.77 52.47C31.4153 51.8687 32.1633 51.3773 33.014 50.996C33.8793 50.6 34.8033 50.402 35.786 50.402C36.6807 50.402 37.4507 50.5047 38.096 50.71C38.7413 50.9153 39.2693 51.2087 39.68 51.59C40.1053 51.9567 40.4133 52.4113 40.604 52.954C40.8093 53.482 40.912 54.0833 40.912 54.758ZM44.2639 66V50.754H54.4719V53.636H47.6959V56.826H53.7239V59.708H47.6959V66H44.2639ZM66.052 66C65.8907 65.472 65.7073 64.9293 65.502 64.372C65.3113 63.8147 65.1207 63.2573 64.93 62.7H58.99C58.7993 63.2573 58.6013 63.8147 58.396 64.372C58.2053 64.9293 58.0293 65.472 57.868 66H54.304C54.876 64.3573 55.4187 62.8393 55.932 61.446C56.4453 60.0527 56.944 58.74 57.428 57.508C57.9267 56.276 58.4107 55.11 58.88 54.01C59.364 52.8953 59.8627 51.81 60.376 50.754H63.654C64.1527 51.81 64.644 52.8953 65.128 54.01C65.612 55.11 66.096 56.276 66.58 57.508C67.0787 58.74 67.5847 60.0527 68.098 61.446C68.6113 62.8393 69.154 64.3573 69.726 66H66.052ZM61.938 54.208C61.8647 54.428 61.7547 54.7287 61.608 55.11C61.4613 55.4913 61.2927 55.9313 61.102 56.43C60.9113 56.9287 60.6987 57.4787 60.464 58.08C60.244 58.6813 60.0167 59.312 59.782 59.972H64.116C63.8813 59.312 63.654 58.6813 63.434 58.08C63.214 57.4787 63.0013 56.9287 62.796 56.43C62.6053 55.9313 62.4367 55.4913 62.29 55.11C62.1433 54.7287 62.026 54.428 61.938 54.208Z" fill="black"/>
</svg>
