<?xml version="1.0" encoding="UTF-8"?>
<svg version="1.1" xmlns="http://www.w3.org/2000/svg" width="1000" height="1000">
<path d="M0 0 C1.40280403 -0.00458026 2.80560584 -0.00989117 4.20840454 -0.0158844 C7.12796221 -0.02474223 10.0472453 -0.02247778 12.96679688 -0.01245117 C16.66349468 -0.00097737 20.35923482 -0.02118537 24.05580711 -0.05036831 C26.94735491 -0.06892954 29.83868162 -0.06839875 32.7302742 -0.06273079 C34.74114333 -0.06250791 36.75199239 -0.07921395 38.76278687 -0.09654236 C50.79766569 -0.00681609 62.46059434 2.42429748 73.2265625 7.99609375 C74.21354126 8.49882812 74.21354126 8.49882812 75.22045898 9.01171875 C82.18656431 12.75444863 87.58801625 17.773535 93.0390625 23.43359375 C93.71453125 24.08972656 94.39 24.74585938 95.0859375 25.421875 C110.9145053 41.77572713 112.38525022 65.20710182 112.234375 86.6484375 C112.23063237 88.24125488 112.22779133 89.83407461 112.22579956 91.42689514 C112.21826133 95.56467347 112.19870063 99.70230533 112.1763916 103.84002686 C112.15571833 108.08408631 112.14675252 112.32817005 112.13671875 116.57226562 C112.11544262 124.85944128 112.08142962 133.14649916 112.0390625 141.43359375 C112.65988205 141.42548172 113.2807016 141.41736969 113.92033386 141.40901184 C115.13962334 141.39954781 115.13962334 141.39954781 116.38354492 141.38989258 C117.18998947 141.38178055 117.99643402 141.37366852 118.82731628 141.36531067 C124.05642856 141.52674867 127.91080662 144.24595598 131.4140625 147.93359375 C134.55559685 152.76672352 135.33284663 156.18518544 135.31321716 161.96002197 C135.31845384 162.72141944 135.32369052 163.4828169 135.32908589 164.26728702 C135.34409638 166.82049699 135.34479127 169.37350673 135.34545898 171.92675781 C135.35307985 173.75671223 135.36150722 175.58666343 135.37068176 177.41661072 C135.39264283 182.38989906 135.40142801 187.3631259 135.40650821 192.33645725 C135.41015036 195.44418887 135.41638973 198.55190435 135.4235096 201.65962982 C135.4480112 212.50339974 135.4610572 223.34712179 135.46459961 234.19091797 C135.46823381 244.29522081 135.49811918 254.39921969 135.54000419 264.50342965 C135.57471064 273.18043186 135.59014813 281.85733337 135.59084564 290.53440452 C135.59163844 295.71585567 135.60037802 300.89699738 135.62884331 306.07837677 C135.65502938 310.95403901 135.65722606 315.82913539 135.64118767 320.70483589 C135.63937352 322.49143012 135.64606083 324.27805692 135.66200638 326.06458092 C135.79854438 342.35952538 135.79854438 342.35952538 131.40470982 348.0787468 C125.14581668 354.28814084 119.15040215 354.58344716 110.75372314 354.57403564 C109.92275643 354.57700677 109.09178972 354.57997789 108.23564219 354.58303905 C105.452983 354.59170617 102.67036693 354.59323261 99.88769531 354.59472656 C97.89173287 354.59935613 95.89577132 354.60438098 93.89981079 354.60977173 C88.47818821 354.62288412 83.05657801 354.6293384 77.63494205 354.63378239 C74.24662421 354.63671491 70.85830974 354.64082006 67.46999359 354.64528656 C56.86548988 354.65895827 46.26099389 354.6686266 35.65648198 354.67248845 C23.42108376 354.6769689 11.18579727 354.69451764 -1.04956698 354.72348905 C-10.5113036 354.7451142 -19.9730088 354.75519318 -29.43476987 354.75652957 C-35.0839653 354.75757697 -40.73305565 354.76347112 -46.38222504 354.78134918 C-51.69771943 354.79784426 -57.01302991 354.79997832 -62.3285408 354.79121017 C-64.27596403 354.79044058 -66.22339721 354.79477223 -68.17079544 354.80466843 C-70.83663558 354.81741766 -73.50182723 354.81149508 -76.16766357 354.80108643 C-76.93179085 354.80914283 -77.69591814 354.81719923 -78.48320079 354.82549977 C-84.72568516 354.76879417 -91.31374032 353.76907387 -96.1171875 349.53125 C-96.560625 348.85964844 -97.0040625 348.18804688 -97.4609375 347.49609375 C-97.925 346.82707031 -98.3890625 346.15804688 -98.8671875 345.46875 C-101.19737339 341.13293983 -101.10735364 336.83528941 -101.10137939 332.00759888 C-101.10435052 331.25704094 -101.10732164 330.506483 -101.1103828 329.73318088 C-101.11905824 327.21680331 -101.12057706 324.70047337 -101.12207031 322.18408203 C-101.12669924 320.38044127 -101.131724 318.57680149 -101.13711548 316.77316284 C-101.15023279 311.87232706 -101.15668293 306.97150498 -101.16112614 302.07065439 C-101.16405745 299.0091766 -101.16816234 295.94770256 -101.17263031 292.88622665 C-101.1863024 283.30848461 -101.19597093 273.73075112 -101.1998322 264.153 C-101.20431481 253.09480715 -101.22187334 242.03673779 -101.2508328 230.9785825 C-101.27243972 222.43155479 -101.28253593 213.88456186 -101.28387332 205.33750713 C-101.2849219 200.23221075 -101.29084114 195.12703049 -101.30869293 190.02176285 C-101.32515686 185.2200907 -101.32733727 180.41862221 -101.31855392 175.61693192 C-101.3177827 173.85530553 -101.32213754 172.09366827 -101.33201218 170.3320694 C-101.34470965 167.92565533 -101.33886722 165.51996498 -101.32843018 163.11355591 C-101.33648658 162.41782695 -101.34454298 161.72209799 -101.35284352 161.00528634 C-101.29252682 155.0519668 -99.48889975 151.20933366 -95.6484375 146.74609375 C-91.07961574 142.814782 -87.76722168 141.26625928 -81.75390625 141.359375 C-80.40655396 141.375448 -80.40655396 141.375448 -79.03198242 141.3918457 C-78.3485376 141.40562256 -77.66509277 141.41939941 -76.9609375 141.43359375 C-76.96981995 140.45212875 -76.97870239 139.47066376 -76.987854 138.4594574 C-77.06941732 129.14887656 -77.12912987 119.83836947 -77.16818619 110.52751064 C-77.1889414 105.74222708 -77.21703463 100.95723501 -77.26269531 96.17211914 C-77.30658848 91.54254916 -77.33016498 86.91325717 -77.34044647 82.28349495 C-77.34776071 80.52909032 -77.36204026 78.77469857 -77.38385773 77.02041435 C-77.62946038 56.42782098 -73.00355443 39.18157592 -58.9609375 23.43359375 C-58.33316406 22.72332031 -57.70539063 22.01304687 -57.05859375 21.28125 C-42.0479777 5.28834415 -21.25631496 -0.0477201 0 0 Z M-24.2734375 55.68359375 C-24.72332031 56.204375 -25.17320312 56.72515625 -25.63671875 57.26171875 C-30.91509285 65.91887509 -30.35283352 74.62322102 -30.25390625 84.40234375 C-30.24948835 85.86360328 -30.24643216 87.32486757 -30.24475098 88.78613281 C-30.229104 94.16869279 -30.18722019 99.55115075 -30.1484375 104.93359375 C-30.0865625 116.97859375 -30.0246875 129.02359375 -29.9609375 141.43359375 C1.0590625 141.43359375 32.0790625 141.43359375 64.0390625 141.43359375 C64.1215625 129.42984375 64.2040625 117.42609375 64.2890625 105.05859375 C64.32547852 101.28631348 64.36189453 97.5140332 64.39941406 93.62744141 C64.41280232 90.20806084 64.41280232 90.20806084 64.4208374 86.78866577 C64.4269284 85.28072368 64.4408889 83.7727995 64.46136475 82.26498413 C64.58918785 72.34531938 64.60320622 63.09567264 58.07421875 54.99609375 C57.42324219 54.48046875 56.77226563 53.96484375 56.1015625 53.43359375 C55.45316406 52.89734375 54.80476563 52.36109375 54.13671875 51.80859375 C49.85318795 49.00076723 46.18227208 48.18072868 41.09057617 48.14306641 C39.32800728 48.12392685 39.32800728 48.12392685 37.52983093 48.10440063 C35.63754509 48.10106216 35.63754509 48.10106216 33.70703125 48.09765625 C32.40131668 48.09099945 31.09560211 48.08434265 29.75032043 48.07748413 C26.98903091 48.06553183 24.22786629 48.06180109 21.46655273 48.06298828 C17.94608074 48.06319116 14.42641881 48.03591345 10.90613842 48.00144386 C7.52725866 47.97371571 4.14852311 47.97502266 0.76953125 47.97265625 C-0.48591995 47.95828522 -1.74137115 47.94391418 -3.03486633 47.92910767 C-11.35687681 47.97233889 -18.63240157 48.82782147 -24.2734375 55.68359375 Z M-73.9609375 226.43359375 C-72.68714031 229.17166247 -71.30850562 231.3995675 -69.3359375 233.68359375 C-68.5521875 234.59109375 -67.7684375 235.49859375 -66.9609375 236.43359375 C-64.61197783 235.55273387 -62.34681867 234.65337824 -60.1640625 233.41015625 C-53.73278587 229.78291623 -48.0499652 229.46974148 -40.9609375 231.43359375 C-39.31769567 236.56872448 -39.20549159 241.35930457 -41.58984375 246.23046875 C-43.86931314 250.5973146 -46.79132854 253.923792 -50.2109375 257.43359375 C-50.80922363 258.06950439 -51.40750977 258.70541504 -52.02392578 259.3605957 C-55.37848882 262.8933726 -58.83111562 266.26371773 -62.4375 269.5390625 C-63.1706543 270.22162109 -63.90380859 270.90417969 -64.65917969 271.60742188 C-66.07450478 272.91670871 -67.51454843 274.19993621 -68.98144531 275.45117188 C-71.31358126 277.50743581 -71.31358126 277.50743581 -73.9609375 281.43359375 C-73.9609375 285.39359375 -73.9609375 289.35359375 -73.9609375 293.43359375 C-56.4709375 293.43359375 -38.9809375 293.43359375 -20.9609375 293.43359375 C-20.9609375 289.14359375 -20.9609375 284.85359375 -20.9609375 280.43359375 C-31.8509375 280.43359375 -42.7409375 280.43359375 -53.9609375 280.43359375 C-46.12871455 271.4824818 -46.12871455 271.4824818 -42.734375 268.25 C-41.6515625 267.1990918 -41.6515625 267.1990918 -40.546875 266.12695312 C-39.07080627 264.70434624 -37.58899526 263.28767388 -36.1015625 261.87695312 C-28.85574858 254.80644115 -23.90123663 247.59033053 -23.5859375 237.24609375 C-23.65512226 231.02638352 -24.54190185 226.91621265 -28.9609375 222.43359375 C-42.90543074 211.41606344 -61.25476453 215.51138203 -73.9609375 226.43359375 Z M-7.9609375 217.43359375 C-7.9609375 242.51359375 -7.9609375 267.59359375 -7.9609375 293.43359375 C-2.6809375 293.43359375 2.5990625 293.43359375 8.0390625 293.43359375 C8.0390625 283.53359375 8.0390625 273.63359375 8.0390625 263.43359375 C20.4765625 263.49609375 20.4765625 263.49609375 24.40405273 263.52368164 C25.41669189 263.5261792 26.42933105 263.52867676 27.47265625 263.53125 C29.03584595 263.53910522 29.03584595 263.53910522 30.63061523 263.54711914 C32.99034997 263.70664931 32.99034997 263.70664931 34.0390625 262.43359375 C34.0390625 258.47359375 34.0390625 254.51359375 34.0390625 250.43359375 C25.4590625 250.43359375 16.8790625 250.43359375 8.0390625 250.43359375 C8.0390625 243.83359375 8.0390625 237.23359375 8.0390625 230.43359375 C17.2790625 230.43359375 26.5190625 230.43359375 36.0390625 230.43359375 C36.0390625 226.14359375 36.0390625 221.85359375 36.0390625 217.43359375 C21.5190625 217.43359375 6.9990625 217.43359375 -7.9609375 217.43359375 Z M68.0390625 217.43359375 C64.81017764 225.31441974 61.92508238 233.28204359 59.125 241.32421875 C58.66486643 242.64083153 58.20454586 243.95737896 57.74404907 245.27386475 C56.54274766 248.7099529 55.344195 252.14699368 54.1461792 255.58422852 C53.16890879 258.38657892 52.18963079 261.18822574 51.21025658 263.98984146 C50.0353132 267.35105922 48.86128839 270.71259751 47.6875 274.07421875 C47.46635906 274.70745308 47.24521812 275.34068741 47.01737595 275.99311066 C46.38788542 277.79634328 45.75911456 279.59982708 45.13037109 281.40332031 C44.77381439 282.42572815 44.41725769 283.44813599 44.04989624 284.50152588 C43.02585098 287.47191564 42.03263605 290.45287309 41.0390625 293.43359375 C46.6490625 293.43359375 52.2590625 293.43359375 58.0390625 293.43359375 C61.66525169 284.67222524 61.66525169 284.67222524 63.0390625 275.43359375 C72.6090625 275.76359375 82.1790625 276.09359375 92.0390625 276.43359375 C94.5140625 284.84859375 94.5140625 284.84859375 97.0390625 293.43359375 C102.6490625 293.43359375 108.2590625 293.43359375 114.0390625 293.43359375 C113.34407573 289.9586599 112.63728674 287.01205562 111.49194336 283.71704102 C111.17748764 282.80741104 110.86303192 281.89778107 110.53904724 280.96058655 C110.19745071 279.98359299 109.85585419 279.00659943 109.50390625 278 C108.96848961 276.45746803 108.96848961 276.45746803 108.42225647 274.8837738 C107.66302061 272.69858731 106.90219079 270.51395407 106.13989258 268.32983398 C105.00170881 265.0681552 103.86855829 261.80476517 102.73632812 258.54101562 C97.95808804 244.79373576 93.05155518 231.09713228 88.0390625 217.43359375 C81.4390625 217.43359375 74.8390625 217.43359375 68.0390625 217.43359375 Z " fill="#FFFEFE" transform="translate(481.9609375,309.56640625)"/>
<path d="M0 0 C0.81025131 0.32530197 1.62050262 0.65060394 2.45530701 0.98576355 C4.26075724 1.71294412 6.06329174 2.447394 7.86328125 3.18798828 C10.90075414 4.43748492 13.94539105 5.66795359 16.9921875 6.89453125 C21.13526578 8.56344599 25.27656392 10.23661983 29.41592216 11.91473961 C39.38232583 15.95300501 49.37300008 19.92952052 59.3671875 23.8984375 C60.67185061 24.41661513 60.67185061 24.41661513 62.00287056 24.945261 C65.61388313 26.37938037 69.22496535 27.81332408 72.83617115 29.24695683 C82.30626763 33.00671716 91.77362799 36.77334505 101.24073982 40.54061317 C105.14318972 42.09350303 109.0457256 43.64617673 112.94825649 45.19886303 C118.85652373 47.54957806 124.76474375 49.90041178 130.67297363 52.2512207 C133.62703244 53.42660025 136.58109395 54.60197298 139.53515625 55.77734375 C140.50741842 56.16419405 141.4796806 56.55104435 142.48140526 56.94961739 C147.35069302 58.88701233 152.22004089 60.82425597 157.08950806 62.76119995 C159.01100767 63.52553054 160.93250629 64.28986362 162.85400391 65.05419922 C163.79827555 65.42980925 164.74254719 65.80541927 165.71543312 66.19241142 C171.34039288 68.43009598 176.96477732 70.66921929 182.58870125 72.90950584 C198.93928556 79.42242564 215.29154732 85.92840869 231.69140625 92.31640625 C233.98897626 93.21408018 236.28650447 94.1118611 238.58398438 95.00976562 C242.58569004 96.57336621 246.59250022 98.12257345 250.60351562 99.66210938 C252.31010852 100.32757982 254.01650462 100.99355529 255.72265625 101.66015625 C256.46182281 101.93866425 257.20098938 102.21717224 257.96255493 102.50411987 C263.14209615 104.54880678 267.88022758 107.04372053 270.86303204 111.97084576 C271.78235651 114.24092757 271.96637411 115.82544595 271.96931934 118.2648077 C271.97515154 119.09786936 271.98098373 119.93093101 271.98699266 120.78923696 C271.98321333 121.69941361 271.97943401 122.60959026 271.97554016 123.54734802 C271.97936571 124.51852398 271.98319126 125.48969995 271.98713273 126.49030548 C271.99747564 129.75457791 271.99346778 133.01867484 271.98950195 136.28295898 C271.99384838 138.62070377 271.99903129 140.95844712 272.00498962 143.29618835 C272.01841566 149.66134801 272.01895303 156.02644839 272.01642632 162.39161944 C272.01522105 168.39480055 272.02143795 174.39797337 272.02685978 180.40115119 C272.03774735 193.04735086 272.03557025 205.69352391 272.02947494 218.33972508 C272.02433513 229.84326365 272.03548074 241.34671676 272.05457316 252.85023843 C272.07408799 264.70095314 272.08218199 276.55162776 272.0784499 288.40235859 C272.07655442 295.0392274 272.07913226 301.67603447 272.09316444 308.31289482 C272.16146677 343.68912919 271.13356434 377.3520427 263.71484375 412.07421875 C263.50520996 413.05600098 263.29557617 414.0377832 263.07958984 415.04931641 C256.1237753 446.72263665 244.67842068 477.41777944 229.71240234 506.15283203 C228.67543 508.15013315 227.65783062 510.15663159 226.640625 512.1640625 C220.97878719 523.22284178 214.53728099 533.69716401 207.71484375 544.07421875 C207.18842285 544.87682129 206.66200195 545.67942383 206.11962891 546.50634766 C198.59853324 557.90590178 190.5353317 568.65198014 181.71484375 579.07421875 C181.20034668 579.6863623 180.68584961 580.29850586 180.15576172 580.92919922 C166.98467379 596.58318979 153.24709111 612.26863961 137.578125 625.48828125 C135.3601319 627.37613282 133.2324222 629.35124667 131.08984375 631.32421875 C124.88924081 636.91043268 118.33654832 642.00227483 111.71484375 647.07421875 C110.75070557 647.81575195 110.75070557 647.81575195 109.76708984 648.57226562 C21.92241567 715.9682783 21.92241567 715.9682783 -14.53271484 715.45410156 C-20.41832118 714.64178974 -25.73258445 711.89068595 -31.09765625 709.44921875 C-32.42662159 708.85668944 -33.75580875 708.26465742 -35.08520508 707.6730957 C-63.76836712 694.82064772 -91.50092122 680.1170148 -117.28515625 662.07421875 C-117.85943359 661.6757373 -118.43371094 661.27725586 -119.02539062 660.86669922 C-130.59637548 652.82492839 -141.69252949 644.22188065 -152.41015625 635.07421875 C-153.17972656 634.41800537 -153.17972656 634.41800537 -153.96484375 633.74853516 C-163.6406716 625.39894237 -172.91579579 616.63033462 -181.94995117 607.59472656 C-183.47753041 606.06935162 -185.01299207 604.55221203 -186.54882812 603.03515625 C-192.1854333 597.42969847 -197.41835399 591.70487044 -202.359375 585.4675293 C-204.19362677 583.18796919 -206.10842086 581.03119689 -208.09765625 578.88671875 C-224.34523878 560.71634539 -237.60057929 539.38383103 -249.28515625 518.07421875 C-249.76694336 517.19572266 -250.24873047 516.31722656 -250.74511719 515.41210938 C-290.18965027 442.88754822 -298.44312976 368.46241163 -298.45241332 287.25374246 C-298.45313053 283.72277629 -298.45527699 280.19181385 -298.45791054 276.66084862 C-298.4671045 264.32036472 -298.47125162 251.97989151 -298.47045898 239.6394043 C-298.46985487 228.1623574 -298.48048681 216.68535698 -298.49620265 205.20832187 C-298.50926923 195.3113773 -298.51464348 185.41444799 -298.51400357 175.51749486 C-298.51374899 169.62389835 -298.51658061 163.7303436 -298.52718163 157.83675575 C-298.53685146 152.31336248 -298.5369495 146.79005111 -298.52966499 141.26665497 C-298.52861885 139.24258746 -298.53098381 137.21851486 -298.53702545 135.1944561 C-298.54474173 132.4306324 -298.54010352 129.66709212 -298.53239441 126.90327454 C-298.53753797 126.10484566 -298.54268154 125.30641677 -298.54798096 124.48379308 C-298.51515466 119.1528815 -298.16445503 113.83606102 -295.07371521 109.29386902 C-289.09529199 104.21026944 -281.86184546 101.72258313 -274.6328125 98.9375 C-273.13704198 98.34915388 -271.64178056 97.75951209 -270.14698792 97.16868591 C-266.92175252 95.8968955 -263.69327476 94.63386537 -260.4619751 93.37756348 C-255.24758694 91.35004935 -250.04099066 89.30303205 -244.83544922 87.25292969 C-239.31894258 85.08142796 -233.80189447 82.91135 -228.28222656 80.74789429 C-215.38497791 75.69266489 -202.50284176 70.60068418 -189.6328125 65.4765625 C-188.74062956 65.12135592 -187.84844662 64.76614933 -186.92922783 64.40017891 C-182.4053185 62.59881021 -177.88168905 60.79673992 -173.35818481 58.99435425 C-165.13471963 55.71808822 -156.90883513 52.44790457 -148.68324089 49.1769886 C-134.1030648 43.37890426 -119.52409557 37.57778713 -104.94546509 31.77581787 C-97.86137489 28.95652694 -90.77710163 26.13769611 -83.69278526 23.31897354 C-77.93790069 21.02915966 -72.18325855 18.73873795 -66.4288063 16.44783783 C-62.85761141 15.02628378 -59.2861816 13.60532064 -55.71469116 12.18450928 C-54.0789315 11.53363462 -52.44326554 10.8825244 -50.80770874 10.23114014 C-50.04447296 9.92718323 -49.28123718 9.62322632 -48.49487305 9.31005859 C-47.74738674 9.01233803 -46.99990044 8.71461746 -46.22976303 8.40787506 C-44.04514045 7.54022285 -41.8579995 6.67915344 -39.67071533 5.8182373 C-36.59541924 4.60479677 -33.53967164 3.35117558 -30.48895264 2.07727051 C-28.90200255 1.42808013 -27.31502817 0.77894913 -25.72802734 0.12988281 C-24.65683623 -0.32987631 -24.65683623 -0.32987631 -23.5640049 -0.79892349 C-15.18758552 -4.18413524 -8.18501908 -3.44186662 0 0 Z M-21.50390625 29.8515625 C-22.65311806 30.31462799 -22.65311806 30.31462799 -23.82554626 30.78704834 C-25.54684075 31.48112532 -27.26719999 32.17752468 -28.98678589 32.87582397 C-34.04121179 34.92748091 -39.10333581 36.96004058 -44.1640625 38.99609375 C-45.31600601 39.46009079 -46.46794952 39.92408783 -47.65480042 40.40214539 C-63.76911879 46.88817744 -79.91668639 53.29087146 -96.06014633 59.7039299 C-100.53547673 61.48193439 -105.01052952 63.26063729 -109.4855957 65.03930664 C-115.8688315 67.57635118 -122.25214 70.11321259 -128.63555431 72.64980793 C-139.3290355 76.89912662 -150.02193618 81.14990371 -160.71455193 85.40139961 C-165.84384308 87.44081194 -170.97322392 89.47999865 -176.10260868 91.51917553 C-180.74843762 93.36612678 -185.3942029 95.21323788 -190.03983879 97.06067467 C-208.50768053 104.40347273 -226.9825747 111.7283041 -245.4621582 119.04150391 C-247.68883875 119.92278651 -249.91551571 120.80407817 -252.14218903 121.68537903 C-257.52313697 123.81509621 -262.90412856 125.94470308 -268.28515625 128.07421875 C-268.35554554 156.90970626 -268.40828995 185.7451807 -268.44059277 214.58073711 C-268.44365182 217.25768224 -268.4467758 219.93462728 -268.44995117 222.61157227 C-268.4507381 223.27685359 -268.45152503 223.94213491 -268.45233581 224.62757627 C-268.4645087 234.67044365 -268.48559204 244.71326202 -268.51147461 254.75610352 C-268.5415766 266.44181525 -268.5607781 278.12748806 -268.56742173 289.81323749 C-268.57129911 295.9885289 -268.580273 302.16370906 -268.60234642 308.33896446 C-268.9414084 407.14060174 -242.28855478 498.34139858 -174.5078125 572.6328125 C-173.08495835 574.1957015 -171.674769 575.77027439 -170.28125 577.359375 C-165.44958366 582.85115515 -160.38340119 588.08133764 -155.22265625 593.26171875 C-154.56193115 593.92703613 -153.90120605 594.59235352 -153.22045898 595.27783203 C-148.73857232 599.74583601 -144.0866723 603.95367025 -139.28515625 608.07421875 C-138.3209375 608.91984375 -137.35671875 609.76546875 -136.36328125 610.63671875 C-105.94542256 636.85321574 -71.2500446 658.63634556 -34.96533203 675.76953125 C-32.31705246 677.05869194 -29.74245153 678.4467127 -27.15625 679.85546875 C-20.77618266 683.13650425 -14.7779737 686.18644748 -7.57421875 684.05078125 C-3.21737268 682.31877838 0.79949451 680.04924786 4.84472656 677.69238281 C7.98341971 675.92279637 11.17875629 674.3467726 14.42578125 672.78515625 C54.22801843 653.63409357 90.1808057 628.89708696 122.71484375 599.07421875 C123.26849609 598.57100098 123.82214844 598.0677832 124.39257812 597.54931641 C133.5505712 589.27832365 133.5505712 589.27832365 141.89453125 580.20703125 C143.83093763 577.93819459 145.86223249 575.77199126 147.90917969 573.60302734 C154.65465382 566.43199129 160.78304555 558.92586811 166.71484375 551.07421875 C167.25898926 550.35991699 167.80313477 549.64561523 168.36376953 548.90966797 C191.59343468 518.33672735 209.89706453 484.85756122 222.78662109 448.67871094 C223.55741926 446.51593481 224.34508728 444.3607614 225.140625 442.20703125 C231.38004729 424.60657619 235.40409742 406.14054748 238.52734375 387.76171875 C238.81931641 386.06873657 238.81931641 386.06873657 239.1171875 384.34155273 C242.17769474 365.34404674 243.0129673 346.29688181 242.94189453 327.08422852 C242.94132841 324.89367172 242.94165087 322.70311456 242.94277954 320.51255798 C242.94334624 314.64630405 242.93170436 308.78013428 242.91763163 302.91389966 C242.90500864 296.75339021 242.90394475 290.59287818 242.90158081 284.43235779 C242.89539967 272.80250177 242.87903509 261.172684 242.85888183 249.54284471 C242.83641718 236.28742984 242.825503 223.032013 242.81549096 209.77658379 C242.79466535 182.54244103 242.75955584 155.30833205 242.71484375 128.07421875 C242.18893237 127.86883767 241.66302099 127.66345659 241.1211729 127.45185184 C235.51630222 125.26281361 229.91191889 123.07253093 224.30778503 120.88160706 C222.23187379 120.07020835 220.15584902 119.25910003 218.07969666 118.44831848 C203.36851859 112.70298083 188.6855654 106.89083973 174.02734375 101.01171875 C172.74306603 100.49705543 171.45877398 99.98242788 170.17446136 99.46785164 C168.23501129 98.69054085 166.2956907 97.91290692 164.35650635 97.13493347 C152.15695957 92.24139978 139.94583449 87.37732338 127.73046875 82.5234375 C126.46995728 82.02253286 126.46995728 82.02253286 125.18398094 81.51150894 C117.27780635 78.36987096 109.37129611 75.22907852 101.46426392 72.08959961 C82.46326792 64.5450291 63.46818326 56.98657412 44.49847221 49.36362457 C41.83519856 48.29350948 39.17167706 47.22401375 36.5080719 46.15472412 C34.77547737 45.45911842 33.0428876 44.76350086 31.31030273 44.06787109 C30.46610181 43.72893326 29.62190088 43.38999542 28.75211811 43.04078674 C23.77170723 41.04056443 18.79327074 39.03551863 13.81619358 37.02701664 C10.75905011 35.79446041 7.70025539 34.56604492 4.64100838 33.33872032 C3.22517804 32.76962112 1.81008436 32.19868537 0.39578056 31.62580299 C-1.52660725 30.84729936 -3.45141405 30.07511274 -5.37695312 29.30444336 C-6.45231323 28.87103134 -7.52767334 28.43761932 -8.63562012 27.99107361 C-13.57497701 26.28184107 -16.91697838 27.97235026 -21.50390625 29.8515625 Z " fill="#FEFEFE" transform="translate(512.28515625,142.92578125)"/>
<path d="M0 0 C2 1 2 1 3.05322266 3.72802734 C3.4197998 4.9186377 3.78637695 6.10924805 4.1640625 7.3359375 C4.36099701 7.97109283 4.55793152 8.60624817 4.76083374 9.26065063 C5.17625217 10.60623479 5.58790448 11.95298649 5.99609375 13.30078125 C6.62114339 15.36228038 7.25876576 17.41955954 7.8984375 19.4765625 C11 29.56611122 11 29.56611122 11 33 C4.4 33 -2.2 33 -9 33 C-7.62044648 25.43335797 -5.67113194 18.21142157 -3.375 10.875 C-3.05015625 9.823125 -2.7253125 8.77125 -2.390625 7.6875 C-1.59814686 5.12360014 -0.80120992 2.56118184 0 0 Z " fill="#FFFFFF" transform="translate(559,539)"/>
<path d="M0 0 C1 4 1 4 1 4 Z " fill="#FBA454" transform="translate(42,132)"/>
<path d="" fill="#FFFF00" transform="translate(0,0)"/>
</svg>
