<?xml version="1.0" encoding="UTF-8"?>
<svg version="1.1" xmlns="http://www.w3.org/2000/svg" width="1000" height="1000">
<path d="M0 0 C2.67661193 -0.38164619 4.32938126 -0.30416824 6.9296875 0.51953125 C9.96554744 3.23204516 12.50417466 6.18469171 15.125 9.2890625 C36.42958138 34.43846654 72.97672777 47.39868186 104.8046875 50.20703125 C106.84544726 50.3276673 108.88719416 50.43307651 110.9296875 50.51953125 C111.78046875 50.56078125 112.63125 50.60203125 113.5078125 50.64453125 C152.8205998 51.60926223 187.80169621 35.28532546 216.2734375 9.16015625 C218.23069948 7.21440757 219.85649644 5.38438293 221.5390625 3.23046875 C223.9296875 0.51953125 223.9296875 0.51953125 227.6796875 -0.10546875 C241.88700341 0.97654538 260.13081533 5.72004056 270.9296875 15.51953125 C270.9296875 16.17953125 270.9296875 16.83953125 270.9296875 17.51953125 C269.45375122 18.08667847 269.45375122 18.08667847 267.94799805 18.6652832 C264.29398256 20.07180431 260.64409781 21.48878227 256.99536133 22.90893555 C255.41638918 23.52181859 253.83631493 24.13187017 252.25512695 24.73901367 C249.9809184 25.6128299 247.71088383 26.49679336 245.44140625 27.3828125 C244.38187996 27.78612541 244.38187996 27.78612541 243.3009491 28.19758606 C238.50785947 30.03819778 238.50785947 30.03819778 234.9296875 33.51953125 C234.47553292 36.3755923 234.47553292 36.3755923 234.54873657 39.68585205 C234.5402771 40.97775955 234.53181763 42.26966705 234.52310181 43.60072327 C234.5289356 45.03622562 234.53508016 46.47172673 234.54150391 47.90722656 C234.53743888 49.41713338 234.53209738 50.92703723 234.52557373 52.43693542 C234.51186267 56.54774885 234.51722047 60.65833703 234.52671099 64.76915455 C234.53431578 69.08925285 234.52725712 73.40933207 234.52255249 77.72943115 C234.51708563 85.00634195 234.52429867 92.28316163 234.53857422 99.56005859 C234.55477999 107.91613482 234.54970486 116.27199004 234.533095 124.62806058 C234.51935888 131.83183692 234.51762256 139.03554767 234.52541101 146.23933291 C234.53003755 150.52748379 234.53085621 154.81553198 234.52080154 159.10367584 C234.47413389 182.15830812 235.17371744 204.62660588 240.9921875 227.08203125 C241.24806641 228.12037109 241.50394531 229.15871094 241.76757812 230.22851562 C242.75999102 234.20582076 243.78765633 238.10375023 245.11328125 241.984375 C245.9296875 244.51953125 245.9296875 244.51953125 245.9296875 248.51953125 C212.65511757 248.58836926 179.38056552 248.64114694 146.10594006 248.67272724 C142.16738766 248.67647885 138.2288354 248.68036186 134.2902832 248.68432617 C133.11426253 248.68550657 133.11426253 248.68550657 131.91448387 248.68671081 C119.26072348 248.6997242 106.60700445 248.72335533 93.95326851 248.75098964 C80.94559694 248.77915757 67.93794686 248.79573143 54.93024606 248.80179673 C46.919692 248.80588971 38.90925492 248.81876236 30.89873692 248.84328065 C24.7307797 248.86118449 18.56290953 248.86286844 12.39492989 248.85885429 C9.8833164 248.85967247 7.37169805 248.86554294 4.86011124 248.87714767 C-22.64520197 248.99788767 -49.79533002 247.65920736 -70.98046875 227.73828125 C-91.33236077 206.13103888 -92.84446644 179.66130314 -92.0703125 151.51953125 C-90.28834147 106.14446394 -81.01844612 56.03249002 -48.0703125 22.51953125 C-47.37421875 21.78734375 -46.678125 21.05515625 -45.9609375 20.30078125 C-32.99247658 7.63391245 -16.88220726 4.23647842 0 0 Z " fill="#FEFEFE" transform="translate(247.0703125,434.48046875)"/>
<path d="M0 0 C0.89460937 0.82242188 1.78921875 1.64484375 2.7109375 2.4921875 C3.2275293 2.96108398 3.74412109 3.42998047 4.27636719 3.91308594 C25.28584463 23.17696881 38.93445017 50.05665369 40.93212891 78.65917969 C42.20136138 114.14367905 32.62166742 143.62838146 8.13671875 170.05859375 C-13.22634827 191.49046292 -41.61400267 203.011709 -71.7890625 203.8671875 C-104.23426698 202.87015177 -132.83932813 189.98197477 -155.2890625 166.4921875 C-177.88127774 141.19890442 -185.76424119 109.84497306 -184.2890625 76.4921875 C-181.79057861 46.9575368 -166.2626223 19.91681437 -144.2890625 0.4921875 C-103.28314242 -33.36857072 -40.88782156 -35.48522652 0 0 Z " fill="#FEFEFE" transform="translate(434.2890625,251.5078125)"/>
<path d="M0 0 C0.85649643 0.34124405 1.71299286 0.6824881 2.59544373 1.03407288 C5.48578833 2.18750503 8.37168053 3.35169623 11.2578125 4.515625 C13.33846363 5.34805507 15.41944766 6.17965348 17.50073242 7.01049805 C22.16210072 8.87211145 26.82189354 10.73760683 31.48095703 12.60498047 C40.16856664 16.08506845 48.8672511 19.53717782 57.56640625 22.98828125 C59.15810377 23.61983657 60.7497989 24.25139787 62.3414917 24.88296509 C64.74433245 25.83635405 67.14718271 26.78971902 69.55005646 27.74302483 C74.95997244 29.88937103 80.3696049 32.03642959 85.77880859 34.18457031 C86.51821182 34.47818514 87.25761505 34.77179996 88.01942444 35.07431221 C91.70093955 36.53659604 95.38183001 38.00042341 99.06158447 39.46713257 C100.52232425 40.04925137 101.98307866 40.63133343 103.44384766 41.21337891 C104.52853333 41.64560414 104.52853333 41.64560414 105.63513184 42.0865612 C110.33310113 43.9563036 115.03720996 45.80981318 119.74515629 47.65428257 C122.9867322 48.92554009 126.22562372 50.20354814 129.46416283 51.48251915 C131.00534738 52.08921618 132.54774788 52.69283461 134.09142494 53.29316139 C136.22848183 54.12458547 138.36102537 54.96672277 140.49291992 55.8112793 C141.70590256 56.28655563 142.91888519 56.76183197 144.16862488 57.25151062 C147.39100848 58.7694859 149.79072276 60.33041685 152.3828125 62.765625 C153.40338737 65.82734961 153.51096086 67.9044046 153.51652527 71.11019897 C153.52079025 72.21988541 153.52505524 73.32957184 153.52944946 74.47288513 C153.52899628 75.69145706 153.52854309 76.91002899 153.52807617 78.16552734 C153.53311409 80.09068428 153.53311409 80.09068428 153.53825378 82.05473328 C153.54710253 85.58271739 153.54943267 89.11067726 153.55006957 92.6386714 C153.55078123 94.85148971 153.55291806 97.0643019 153.55556679 99.27711868 C153.56483316 107.02361693 153.56890132 114.77009796 153.56811523 122.51660156 C153.5675187 129.68888426 153.57798288 136.8610907 153.5938589 144.03335416 C153.6070543 150.21968252 153.61229395 156.4059864 153.61165982 162.59232867 C153.61140771 166.2734263 153.61409535 169.95445663 153.62483788 173.63554001 C153.77691315 229.61454677 142.17826658 282.52760892 107.3828125 327.765625 C106.95049316 328.3445752 106.51817383 328.92352539 106.07275391 329.52001953 C92.29810011 347.90108399 75.11151884 365.42495101 56.3828125 378.765625 C54.84367187 379.93931641 54.84367187 379.93931641 53.2734375 381.13671875 C6.12935271 416.74699497 6.12935271 416.74699497 -15.30126953 416.14013672 C-20.22374099 415.34411403 -24.60264891 412.98483048 -29.0546875 410.828125 C-30.11727783 410.32450439 -31.17986816 409.82088379 -32.2746582 409.30200195 C-35.39896993 407.80979689 -38.50970926 406.29252212 -41.6171875 404.765625 C-42.41962891 404.37665039 -43.22207031 403.98767578 -44.04882812 403.58691406 C-64.80893962 393.44890446 -84.25216644 379.77647914 -101.14453125 364.05078125 C-103.21578849 362.13658617 -105.32633451 360.31974889 -107.4921875 358.515625 C-148.17424841 322.88775089 -175.38902962 266.37856724 -179.6171875 212.765625 C-179.77779156 207.89285167 -179.79515902 203.0204899 -179.81005859 198.14550781 C-179.81797494 196.68432936 -179.82624479 195.22315278 -179.83483887 193.76197815 C-179.86084795 188.99758723 -179.87632961 184.23318835 -179.890625 179.46875 C-179.89599046 177.82293443 -179.90136797 176.1771189 -179.90675735 174.53130341 C-179.92834112 167.68885684 -179.94708099 160.84641246 -179.95837975 154.00394058 C-179.97465305 144.21726277 -180.00796366 134.43097954 -180.06478059 124.64445043 C-180.1034503 117.74828181 -180.12300797 110.85221898 -180.12830031 103.95594478 C-180.13195335 99.84157645 -180.14397234 95.72763108 -180.17640305 91.61338043 C-180.20643751 87.74883684 -180.2128126 83.88497342 -180.20101929 80.02033806 C-180.20079827 78.60335442 -180.20912706 77.18633951 -180.22667313 75.76946449 C-180.35397294 64.89814447 -180.35397294 64.89814447 -177.55363464 60.59371948 C-174.16407764 58.48354002 -170.76761241 56.83469678 -167.05053711 55.41357422 C-166.2994206 55.11432352 -165.54830408 54.81507282 -164.77442646 54.50675392 C-162.27750255 53.5155314 -159.77371944 52.5430207 -157.26953125 51.5703125 C-155.48715363 50.86691833 -153.70524216 50.16234197 -151.92376709 49.45666504 C-147.13257633 47.56237866 -142.33533084 45.6838994 -137.5368309 43.80821991 C-132.56159946 41.86027371 -127.59215996 39.89767253 -122.62231445 37.93603516 C-115.55088751 35.14626329 -108.47776132 32.36088638 -101.40226269 29.58145714 C-89.50988852 24.90966549 -77.62950074 20.20846838 -65.7578125 15.484375 C-64.95715929 15.16583683 -64.15650608 14.84729866 -63.33159065 14.51910782 C-59.46627974 12.98124007 -55.60114056 11.44294139 -51.7361145 9.90435791 C-45.35294035 7.36355094 -38.96879311 4.8252007 -32.58325958 2.29032898 C-30.7476978 1.56141622 -28.91250869 0.8315652 -27.07733154 0.10168457 C-25.45676849 -0.54153748 -25.45676849 -0.54153748 -23.8034668 -1.19775391 C-22.86754196 -1.56961823 -21.93161713 -1.94148254 -20.96733093 -2.32461548 C-13.25228301 -5.3111729 -7.31705854 -2.97875862 0 0 Z M-21.37866211 16.38574219 C-22.07829606 16.66611297 -22.77793001 16.94648375 -23.49876499 17.23535061 C-25.84030718 18.17456313 -28.17987697 19.11859545 -30.51953125 20.0625 C-32.17218288 20.72620349 -33.82497704 21.3895522 -35.47790527 22.05256653 C-39.0031515 23.46718876 -42.52762218 24.88371894 -46.05148315 26.30178833 C-55.21590175 29.98940349 -64.38524351 33.66474635 -73.5546875 37.33984375 C-74.46479521 37.70472837 -75.37490292 38.069613 -76.31258965 38.44555473 C-94.18718892 45.61067872 -112.09991893 52.67342419 -130.04467773 59.66113281 C-130.99088989 60.03010178 -131.93710205 60.39907074 -132.9119873 60.77922058 C-134.59348741 61.43457364 -136.27552215 62.08855868 -137.95837402 62.74043274 C-146.22708959 65.9611212 -154.41774523 69.37348909 -162.6171875 72.765625 C-162.6877189 89.97019058 -162.74038932 107.17471011 -162.77262402 124.37938786 C-162.78799854 132.37040647 -162.80890438 140.36133451 -162.84350586 148.35229492 C-162.87370038 155.32891088 -162.89283059 162.30546117 -162.89945298 169.28214067 C-162.90331522 172.96563805 -162.91218686 176.64894778 -162.93437767 180.33238411 C-163.19238319 224.95579424 -154.7626447 268.51262062 -128.6171875 305.765625 C-128.25834473 306.28995117 -127.89950195 306.81427734 -127.52978516 307.35449219 C-121.41357727 316.29102213 -114.78910676 324.65606956 -107.6171875 332.765625 C-106.91045898 333.56709961 -106.91045898 333.56709961 -106.18945312 334.38476562 C-101.32455296 339.87354112 -96.42936889 345.25792217 -90.78125 349.9609375 C-89.18241296 351.2942637 -87.61963108 352.67109929 -86.078125 354.0703125 C-67.76634841 370.35281569 -46.04447925 383.16800419 -23.8671875 393.453125 C-23.12807129 393.80503906 -22.38895508 394.15695312 -21.62744141 394.51953125 C-17.1827366 396.50178154 -14.41655778 397.30806786 -9.6171875 395.765625 C-5.94468005 394.25357347 -2.37483342 392.56666658 1.1953125 390.828125 C2.21052979 390.33812012 3.22574707 389.84811523 4.27172852 389.34326172 C13.26188584 384.94260411 21.88960857 380.05374151 30.3828125 374.765625 C31.07415283 374.33572266 31.76549316 373.90582031 32.4777832 373.46289062 C34.44846495 372.23415287 36.41640615 371.00119039 38.3828125 369.765625 C39.16269531 369.27578125 39.94257812 368.7859375 40.74609375 368.28125 C60.68058552 355.33781246 78.26321071 337.80746213 92.3828125 318.765625 C92.8065918 318.20262695 93.23037109 317.63962891 93.66699219 317.05957031 C119.76170283 282.30005184 135.62211372 239.8515715 135.49633789 196.16772461 C135.4960553 194.81666058 135.49621516 193.46559641 135.4967804 192.11453247 C135.49706556 188.47260591 135.49121436 184.83071275 135.48420644 181.1887939 C135.47792603 177.3731432 135.47736541 173.55749162 135.47618103 169.74183655 C135.47308148 162.52789641 135.46488674 155.31397155 135.45483154 148.10003811 C135.44362754 139.8823337 135.43814918 131.66462853 135.43313611 123.44691837 C135.42270289 106.5531451 135.40513025 89.65938667 135.3828125 72.765625 C134.86308113 72.5587632 134.34334976 72.3519014 133.80786896 72.13877106 C120.94207225 67.01794057 108.07643056 61.8967208 95.21094513 56.77510834 C88.98835757 54.29797264 82.765721 51.82096025 76.54296875 49.34423828 C70.52401386 46.94862869 64.50521253 44.5526336 58.48648071 42.15646362 C54.92364796 40.73819073 51.36062893 39.32038649 47.79760742 37.90258789 C36.85710915 33.54787097 25.92065049 29.1836346 14.99609375 24.7890625 C13.10217986 24.02801805 11.20825918 23.26699048 9.31433105 22.50598145 C5.84310916 21.11100845 2.37373717 19.71156463 -1.09460449 18.30944824 C-2.61574049 17.69767726 -4.13693605 17.08605433 -5.65820312 16.47460938 C-6.6857798 16.05690781 -6.6857798 16.05690781 -7.7341156 15.63076782 C-13.42639035 13.35038502 -15.85726112 14.1479086 -21.37866211 16.38574219 Z " fill="#FEFEFE" transform="translate(684.6171875,421.234375)"/>
<path d="M0 0 C1.84271484 -0.01160156 1.84271484 -0.01160156 3.72265625 -0.0234375 C13.77513699 -0.00211729 23.89957897 0.28639041 32.9375 5.125 C34.35869141 5.86363281 34.35869141 5.86363281 35.80859375 6.6171875 C45.50414198 12.49924724 51.15534964 21.55071525 54.5 32.25 C55.2625599 35.57308727 55.62291012 38.63362676 55.61352539 42.0402832 C55.61341209 43.42114861 55.61341209 43.42114861 55.61329651 44.82991028 C55.60813522 45.8102977 55.60297394 46.79068512 55.59765625 47.80078125 C55.5962413 48.81472458 55.59482635 49.82866791 55.59336853 50.87333679 C55.58778328 54.10308821 55.57523345 57.33276962 55.5625 60.5625 C55.5574831 62.75585837 55.55292052 64.94921783 55.54882812 67.14257812 C55.53781868 72.51174253 55.5210952 77.88086626 55.5 83.25 C56.42296875 83.21519531 57.3459375 83.18039062 58.296875 83.14453125 C62.4939191 83.2827266 64.31561565 84.57222225 67.5 87.25 C70.23443537 92.00237098 69.78832898 97.13461392 69.7746582 102.45288086 C69.77976913 103.47785172 69.78488007 104.50282257 69.79014587 105.55885315 C69.80403663 108.94424288 69.80308552 112.32942892 69.80078125 115.71484375 C69.80466833 118.06987076 69.80900303 120.42489708 69.81376648 122.77992249 C69.82122749 127.71520257 69.82093814 132.65041111 69.81567383 137.58569336 C69.80987808 143.9086497 69.82681358 150.23131323 69.8500185 156.55422115 C69.86475303 161.41754365 69.86562793 166.28079557 69.86250877 171.14413643 C69.86302208 173.4753229 69.86826157 175.80651332 69.87832069 178.13767815 C69.89066259 181.39788705 69.88390657 184.65752479 69.87231445 187.91772461 C69.87995819 188.87947601 69.88760193 189.84122742 69.89547729 190.8321228 C69.85478099 196.01276549 69.58313599 199.87017946 66.5 204.25 C62.98862023 206.76314074 60.56126117 207.62552438 56.26281738 207.63095093 C55.22822891 207.6394104 54.19364044 207.64786987 53.12770081 207.65658569 C51.44123695 207.64747665 51.44123695 207.64747665 49.72070312 207.63818359 C48.52831528 207.64344055 47.33592743 207.64869751 46.10740662 207.65411377 C42.84495042 207.66504248 39.58286036 207.6624987 36.32040977 207.65297651 C32.90211609 207.64536765 29.48384642 207.65242893 26.06555176 207.65713501 C20.32572047 207.66258901 14.58600509 207.65541036 8.84619141 207.64111328 C2.21539347 207.62478735 -4.41512771 207.63007612 -11.04591894 207.6465925 C-16.74458859 207.66021758 -22.44317504 207.66212206 -28.14185572 207.65427649 C-31.54297578 207.64960555 -34.94396586 207.64895906 -38.34507751 207.65888596 C-42.13714366 207.66649578 -45.92867673 207.65490175 -49.72070312 207.63818359 C-50.84501236 207.64425629 -51.96932159 207.65032898 -53.12770081 207.65658569 C-54.67958351 207.64389648 -54.67958351 207.64389648 -56.26281738 207.63095093 C-57.15875862 207.62981985 -58.05469986 207.62868877 -58.97779083 207.62752342 C-62.09682084 207.16066806 -63.95642732 206.09173823 -66.5 204.25 C-68.61367486 201.07948772 -68.75349227 200.29941391 -68.77415466 196.67092896 C-68.78412979 195.73164551 -68.79410492 194.79236206 -68.80438232 193.82461548 C-68.805047 192.79597382 -68.80571167 191.76733215 -68.80639648 190.70751953 C-68.81888176 189.08030975 -68.81888176 189.08030975 -68.83161926 187.42022705 C-68.85576861 183.82438599 -68.86449732 180.22872613 -68.87109375 176.6328125 C-68.88005602 174.13801009 -68.88917778 171.64320825 -68.89845276 169.14840698 C-68.91495852 163.91452284 -68.92267897 158.6806831 -68.92553711 153.44677734 C-68.92877042 148.06899455 -68.94990905 142.69161852 -68.98706055 137.31396484 C-69.03121097 130.82654943 -69.05099995 124.33951748 -69.05226326 117.85195541 C-69.05647499 115.37757488 -69.06894717 112.90319427 -69.08978081 110.42889786 C-69.11659274 106.96923689 -69.11189903 103.51098084 -69.09936523 100.05126953 C-69.12161667 98.51437973 -69.12161667 98.51437973 -69.14431763 96.94644165 C-69.07242353 89.9885463 -69.07242353 89.9885463 -66.08753967 86.13742065 C-62.23468978 83.32704888 -60.24347275 83.14688103 -55.5 83.25 C-55.52356567 81.2994873 -55.52356567 81.2994873 -55.54760742 79.30957031 C-55.60236155 74.43414632 -55.63651393 69.5587489 -55.66479492 64.68310547 C-55.67977873 62.58247286 -55.70017281 60.48187099 -55.72631836 58.38134766 C-55.94178945 40.61131977 -55.4293083 25.78102866 -42.875 12 C-30.78262841 0.643286 -15.772167 -0.09930011 0 0 Z M-23.5 32.25 C-28.09955945 38.03654253 -27.63955785 44.66591214 -27.59765625 51.70703125 C-27.59664917 52.50798218 -27.59564209 53.30893311 -27.59460449 54.13415527 C-27.58939433 57.11028486 -27.57543312 60.08639395 -27.5625 63.0625 C-27.541875 69.724375 -27.52125 76.38625 -27.5 83.25 C-9.35 83.25 8.8 83.25 27.5 83.25 C27.5928125 72.545625 27.5928125 72.545625 27.6875 61.625 C27.71481201 59.38251465 27.74212402 57.1400293 27.77026367 54.82958984 C27.77903053 53.04004453 27.786674 51.25049321 27.79296875 49.4609375 C27.80831665 48.54159424 27.82366455 47.62225098 27.83947754 46.67504883 C27.84160776 41.43045416 27.45799268 37.77627111 24.5 33.25 C18.02224014 27.25807213 11.37429053 27.99992714 3.04125977 27.95483398 C1.56427404 27.94334686 0.08732875 27.92294672 -1.3894043 27.89331055 C-13.0309524 27.58785631 -13.0309524 27.58785631 -23.5 32.25 Z M-52.5 132.25 C-51.25023244 135.90316671 -50.82901247 137.03065836 -47.5 139.25 C-46.778125 138.775625 -46.05625 138.30125 -45.3125 137.8125 C-42.53689384 136.27049658 -40.65038255 135.49233712 -37.5 135.25 C-35.1875 136.1875 -35.1875 136.1875 -33.5 137.25 C-32.98529747 142.65437659 -34.30064224 144.95598595 -37.5 149.25 C-39.43994755 151.37861907 -41.484868 153.38149298 -43.5625 155.375 C-48.55708177 159.89928423 -48.55708177 159.89928423 -52.5 165.25 C-52.5 167.56 -52.5 169.87 -52.5 172.25 C-42.6 172.25 -32.7 172.25 -22.5 172.25 C-22.5 169.61 -22.5 166.97 -22.5 164.25 C-28.44 163.92 -34.38 163.59 -40.5 163.25 C-39.52417969 162.32058594 -38.54835938 161.39117188 -37.54296875 160.43359375 C-36.25728038 159.18544372 -34.97215368 157.93671496 -33.6875 156.6875 C-33.04490234 156.07841797 -32.40230469 155.46933594 -31.74023438 154.84179688 C-26.90097146 150.10282957 -24.04333553 146.05334868 -23.0625 139.1875 C-23.64445543 135.28008494 -24.95797363 133.26029438 -27.5 130.25 C-35.79312429 124.59559708 -44.72006391 127.06337594 -52.5 132.25 Z M-14.5 128.25 C-14.5 142.77 -14.5 157.29 -14.5 172.25 C-11.53 172.25 -8.56 172.25 -5.5 172.25 C-5.5 166.31 -5.5 160.37 -5.5 154.25 C-0.55 154.25 4.4 154.25 9.5 154.25 C9.5 151.94 9.5 149.63 9.5 147.25 C4.55 147.25 -0.4 147.25 -5.5 147.25 C-5.5 143.29 -5.5 139.33 -5.5 135.25 C-0.22 135.25 5.06 135.25 10.5 135.25 C10.5 132.94 10.5 130.63 10.5 128.25 C2.25 128.25 -6 128.25 -14.5 128.25 Z M29.5 128.25 C28.83613281 130.10882812 28.17226563 131.96765625 27.48828125 133.8828125 C25.71744792 138.84114583 23.94661458 143.79947917 22.17578125 148.7578125 C21.73830566 149.98532227 21.30083008 151.21283203 20.85009766 152.47753906 C19.92612157 155.06602405 18.99225217 157.65069323 18.05224609 160.23339844 C17.81998825 160.87469696 17.58773041 161.51599548 17.34843445 162.17672729 C16.70338029 163.95695816 16.05526974 165.73608069 15.40698242 167.51513672 C14.39507384 170.0861658 14.39507384 170.0861658 14.5 172.25 C17.8 172.25 21.1 172.25 24.5 172.25 C25.49 168.95 26.48 165.65 27.5 162.25 C32.78 162.25 38.06 162.25 43.5 162.25 C44.985 167.2 44.985 167.2 46.5 172.25 C49.8 172.25 53.1 172.25 56.5 172.25 C54.07223545 162.59857111 50.75573921 153.38453861 47.3125 144.0625 C46.74763196 142.52293863 46.18317581 140.98322607 45.61914062 139.44335938 C44.25083007 135.71048179 42.87698265 131.97968686 41.5 128.25 C37.54 128.25 33.58 128.25 29.5 128.25 Z " fill="#FEFEFE" transform="translate(670.5,515.75)"/>
<path d="M0 0 C0.66 0 1.32 0 2 0 C2.83857688 2.60258324 3.67103344 5.20685647 4.5 7.8125 C4.73847656 8.55048828 4.97695313 9.28847656 5.22265625 10.04882812 C6.19940136 13.13255196 7 15.74495809 7 19 C3.04 19 -0.92 19 -5 19 C-1.85714286 6.28571429 -1.85714286 6.28571429 0 0 Z " fill="#FFFEFE" transform="translate(705,651)"/>
</svg>
